<svg xmlns="http://www.w3.org/2000/svg" viewBox="0 0 800 600" width="800" height="600">
  <defs>
    <radialGradient id="bg" cx="50%" cy="50%" r="55%">
      <stop offset="0%" stop-color="#FFFFFF"/>
      <stop offset="100%" stop-color="#F4F4F2"/>
    </radialGradient>
    <radialGradient id="shadow" cx="50%" cy="82%" r="38%">
      <stop offset="0%" stop-color="#000000" stop-opacity="0.07"/>
      <stop offset="100%" stop-color="#000000" stop-opacity="0"/>
    </radialGradient>
  </defs>
  <rect width="800" height="600" fill="url(#bg)"/>
  <!-- Ground shadow -->
  <ellipse cx="400" cy="390" rx="260" ry="18" fill="url(#shadow)"/>
  <!-- Glasses — scaled 1.5x from center to fill frame -->
  <g transform="translate(400,295) scale(1.5) translate(-400,-295)">
    
  <defs>
    <filter id="sh"><feDropShadow dx="0" dy="6" stdDeviation="8" flood-opacity="0.2"/></filter>
  </defs>
  <!-- Single shield lens -->
  <path d="M 90,270 Q 200,240 400,242 Q 600,240 710,270 Q 730,300 710,350 Q 600,390 400,392 Q 200,390 90,350 Q 70,300 90,270 Z"
        fill="rgba(216,214,210,0.18)" stroke="#D8D6D2" stroke-width="5" filter="url(#sh)"/>
  <!-- Center divider (nose bridge integrated) -->
  <path d="M 370,242 Q 400,280 370,360" fill="none" stroke="#D8D6D2" stroke-width="3" opacity="0.4"/>
  <path d="M 430,242 Q 400,280 430,360" fill="none" stroke="#D8D6D2" stroke-width="3" opacity="0.4"/>
  <!-- Left temple -->
  <line x1="93" y1="305" x2="25" y2="320" stroke="#D8D6D2" stroke-width="5.5" stroke-linecap="round"/>
  <!-- Right temple -->
  <line x1="707" y1="305" x2="775" y2="320" stroke="#D8D6D2" stroke-width="5.5" stroke-linecap="round"/>
  <!-- Cable detail (Fred signature) -->
  <path d="M 93,295 Q 70,300 60,315" fill="none" stroke="#D8D6D2" stroke-width="2" stroke-dasharray="3,2" opacity="0.6"/>
  <!-- Reflection sweep -->
  <path d="M 130,265 Q 250,253 400,256 Q 550,253 670,265" fill="none" stroke="white" stroke-width="2" stroke-opacity="0.4" stroke-linecap="round"/>
  </g>
</svg>