<svg xmlns="http://www.w3.org/2000/svg" viewBox="0 0 800 600" width="800" height="600">
  <defs>
    <radialGradient id="bg" cx="50%" cy="45%" r="65%">
      <stop offset="0%" stop-color="#EDE5D8"/>
      <stop offset="100%" stop-color="#D4C4B0"/>
    </radialGradient>
    <radialGradient id="face" cx="50%" cy="40%" r="55%">
      <stop offset="0%" stop-color="#E8D9C5" stop-opacity="0.6"/>
      <stop offset="100%" stop-color="#C4A882" stop-opacity="0"/>
    </radialGradient>
  </defs>
  <!-- Background -->
  <rect width="800" height="600" fill="url(#bg)"/>
  <!-- Subtle face glow -->
  <ellipse cx="400" cy="240" rx="200" ry="260" fill="url(#face)"/>
  <!-- Face silhouette (very subtle) -->
  <ellipse cx="400" cy="200" rx="140" ry="170" fill="#C9B49A" opacity="0.12"/>
  <!-- Neck -->
  <rect x="358" y="360" width="84" height="130" rx="42" fill="#C9B49A" opacity="0.10"/>
  <!-- Shoulders -->
  <path d="M 160,480 Q 280,430 400,440 Q 520,430 640,480 L 640,600 L 160,600 Z" fill="#C9B49A" opacity="0.10"/>
  <!-- Glasses -->
  <g transform="translate(0, 80)">
  <defs>
    <filter id="sh"><feDropShadow dx="0" dy="5" stdDeviation="7" flood-opacity="0.17"/></filter>
  </defs>
  <!-- Left lens -->
  <rect x="115" y="260" width="225" height="120" rx="12" ry="12" fill="rgba(140,140,140,0.18)" stroke="#8C8C8C" stroke-width="4.5" filter="url(#sh)"/>
  <!-- Right lens -->
  <rect x="460" y="260" width="225" height="120" rx="12" ry="12" fill="rgba(140,140,140,0.18)" stroke="#8C8C8C" stroke-width="4.5" filter="url(#sh)"/>
  <!-- Bridge -->
  <rect x="340" y="306" width="120" height="8" rx="4" fill="#8C8C8C"/>
  <!-- Left temple with cable wire detail -->
  <line x1="115" y1="315" x2="35" y2="325" stroke="#8C8C8C" stroke-width="4.5" stroke-linecap="round"/>
  <line x1="100" y1="308" x2="35" y2="316" stroke="#8C8C8C" stroke-width="1.5" stroke-opacity="0.5" stroke-linecap="round" stroke-dasharray="4,3"/>
  <!-- Right temple -->
  <line x1="685" y1="315" x2="765" y2="325" stroke="#8C8C8C" stroke-width="4.5" stroke-linecap="round"/>
  <line x1="700" y1="308" x2="765" y2="316" stroke="#8C8C8C" stroke-width="1.5" stroke-opacity="0.5" stroke-linecap="round" stroke-dasharray="4,3"/>
  <!-- Reflection -->
  <line x1="140" y1="276" x2="195" y2="273" stroke="white" stroke-width="1.5" stroke-opacity="0.55" stroke-linecap="round"/>
  <line x1="485" y1="276" x2="540" y2="273" stroke="white" stroke-width="1.5" stroke-opacity="0.55" stroke-linecap="round"/></g>
  <!-- Brand name -->
  <text x="400" y="560" text-anchor="middle" font-family="Garamond, Georgia, serif" font-size="11" letter-spacing="0.3em" fill="#8B6914" opacity="0.7" font-weight="400">FRED</text>
  <!-- Subtle grain texture simulation via noise pattern -->
  <rect width="800" height="600" fill="url(#bg)" opacity="0.04"/>
</svg>